<svg width="270" height="270" viewBox="0 0 270 270" fill="none" xmlns="http://www.w3.org/2000/svg">
<path d="M174.156 21H179.723C182.049 21.153 184.372 21.4122 186.698 21.4329C190.486 21.464 194.274 21.4329 198.073 21.3111C203.994 21.1115 209.933 21.0233 215.841 21.5211C217.99 21.6999 220.178 21.5055 222.301 21.8348C225.377 22.3143 228.417 22.908 231.498 22.0577C231.643 22.0188 231.815 22.1173 231.982 22.1199C233.676 22.1666 235.129 22.8484 236.581 23.8153C237.45 24.3986 237.944 24.9301 237.888 26.0111C237.854 26.6359 237.936 27.2321 238.476 27.6184C239.125 28.0824 239.226 28.772 239.267 29.5394C239.376 31.494 239.185 33.3372 240.26 35.3178C241.305 37.2466 240.937 39.8986 240.219 42.1385C239.906 43.108 239.553 43.9065 239.952 44.9408C240.352 45.9752 239.543 46.5404 238.955 47.0874C238.367 47.6343 237.89 47.1081 237.372 46.7296C236.378 46.0063 236.01 44.9875 235.855 43.782C235.579 41.6433 235.211 39.5253 234.417 37.5188C233.996 36.4533 233.323 35.5045 233.185 34.3042C233.074 33.3528 232.413 32.9328 231.614 32.7488C230.767 32.544 230.264 33.0547 229.816 33.7391C229.315 34.5168 229.288 35.3645 229.332 36.2278C229.435 37.442 229.163 38.6589 228.557 39.6912C228.398 39.9666 228.298 40.2763 228.264 40.5981C228.229 40.9199 228.262 41.2458 228.359 41.5526C228.843 43.4917 229.121 45.4412 228.56 47.427C228.434 47.9791 228.474 48.5595 228.674 49.0861C229.194 50.7426 228.991 52.3862 228.831 54.0791C228.625 56.3059 227.773 58.3747 227.841 60.6871C227.998 66.03 228.061 71.3782 227.906 76.7263C227.853 78.541 227.977 80.3557 228.795 82.0226C229.153 82.7536 229.008 83.4562 228.48 84.0498C227.684 84.9494 227.512 86.0589 227.715 87.1918C227.955 88.5492 228.015 89.9358 227.894 91.3112C227.813 92.045 227.904 92.7889 228.158 93.4758C228.386 94.0513 228.325 94.632 228.296 95.2464C228.219 96.9237 227.698 98.6165 228.054 100.263C228.342 101.58 228.233 102.793 228.09 104.089C227.87 106.08 227.536 108.125 228.681 109.997C229.066 110.63 228.937 111.358 228.587 111.975C228.102 112.807 228.102 113.689 228.192 114.604C228.434 116.937 228.03 119.343 228.991 121.583C229.1 121.842 229.01 122.181 229.046 122.48C229.422 125.679 228.616 128.849 229.046 132.097C229.431 134.975 229.121 137.956 229.134 140.893C229.127 141.628 228.92 142.344 228.538 142.954C227.555 144.678 227.669 146.501 228.436 148.24C228.773 148.997 228.957 149.658 228.698 150.449C228.023 152.523 228.086 154.597 228.606 156.697C228.952 158.091 229.061 159.507 228.381 160.863C227.732 162.159 227.897 163.383 228.461 164.697C229.33 166.688 229.625 168.725 228.272 170.691C227.742 171.468 227.868 172.246 228.495 172.912C229.083 173.547 229.255 174.299 228.703 174.986C228.151 175.673 228.265 176.197 228.63 176.855C229.015 177.558 229.252 178.323 228.63 179.004C227.706 180.008 227.824 180.995 228.587 181.999C229.046 182.603 229.172 183.295 228.773 183.917C227.781 185.472 227.827 187.16 228.129 188.902C228.213 189.544 228.2 190.196 228.09 190.834C227.802 193.063 227.551 195.295 228.662 197.395C228.812 197.68 228.94 198.11 228.848 198.388C228.282 200.117 228.979 201.758 229.032 203.42C229.23 209.457 229.175 215.505 229.347 221.548C229.363 222.113 229.284 222.72 229.676 223.15C230.465 224.019 230.499 225.121 230.472 226.181C230.428 227.819 230.336 229.447 230.46 231.094C230.552 232.296 230 232.732 228.867 232.525C228.023 232.372 227.173 232.242 226.343 232.421C225.157 232.689 223.932 232.696 222.744 232.442C222.386 232.352 222.015 232.353 221.657 232.443C221.3 232.533 220.967 232.71 220.684 232.96C220.125 233.466 219.663 233.53 219.084 233.025C218.829 232.813 218.523 232.683 218.201 232.652C214.953 232.392 211.695 232.221 208.447 232.444C206.721 232.584 204.986 232.492 203.282 232.169C200.349 231.571 197.337 231.559 194.399 232.133C193.207 232.368 191.976 232.228 190.856 231.729C189.956 231.327 189.179 231.21 188.368 231.887C187.884 232.286 187.4 232.307 186.814 231.936C185.72 231.244 184.37 231.871 183.227 231.265C183.14 231.218 182.917 231.368 182.806 231.482C181.932 232.379 180.87 232.338 179.752 232.343C175.441 232.361 171.138 232.014 166.829 231.985C162.804 231.957 158.779 232.224 154.752 232.328C154.026 232.346 153.397 232.413 152.913 233.064C152.62 233.455 152.119 233.81 151.763 233.442C150.71 232.356 149.364 232.665 148.152 232.351C147.091 232.06 145.97 232.157 144.967 232.628C144.18 232.981 143.478 233.108 142.653 232.742C142.299 232.571 141.91 232.5 141.523 232.536C141.136 232.571 140.764 232.713 140.443 232.947C139.664 233.546 138.824 233.593 137.926 233.657C135.857 233.805 133.811 232.833 131.72 233.603C131.582 233.635 131.439 233.636 131.3 233.607C131.161 233.577 131.029 233.518 130.912 233.432C130.106 232.828 129.341 232.963 128.528 233.411C128.298 233.553 128.037 233.626 127.771 233.623C127.506 233.619 127.246 233.539 127.02 233.39C124.81 231.933 122.586 231.775 120.328 233.261C119.895 233.543 119.406 233.536 118.922 233.554C114.178 233.74 109.427 233.409 104.688 233.883C104.285 233.91 103.881 233.871 103.49 233.769C100.939 233.201 98.3657 233.409 95.7929 233.466C93.9898 233.507 92.1286 233.725 90.3932 233.354C88.4037 232.913 86.3924 232.991 84.4101 232.776C82.4279 232.561 80.4432 232.753 78.4682 232.377C78.11 232.307 77.6598 232.296 77.4275 232.582C76.2657 234.013 74.8063 233.619 73.3807 233.403C72.3133 233.24 71.2024 233.8 70.1714 233.144C69.3923 232.672 68.492 232.48 67.6034 232.597C66.4766 232.689 65.3434 232.611 64.2367 232.366C63.6946 232.247 63.0871 231.959 62.5715 232.229C60.7635 233.183 58.7547 232.688 56.8329 233.346C53.1758 234.598 49.3638 235.381 45.4284 235.179C43.5986 235.083 41.6188 234.757 39.9173 235.547C38.3485 236.3 36.6362 236.645 34.9193 236.556C33.4671 236.488 32.4675 238.78 33.2251 240.084C33.6825 240.88 34.3336 240.838 35.0234 240.768C36.0085 240.67 36.9984 240.639 37.7777 241.396C38.6781 242.272 39.6026 242.22 40.5514 241.611C41.2388 241.168 41.9794 241.121 42.7297 240.994C44.1311 240.761 45.046 241.821 46.1932 242.267C49.9762 243.737 53.8705 243.887 57.8108 243.192C58.2092 243.163 58.6094 243.19 59.0016 243.27C60.3376 243.387 61.814 243.833 62.9902 243.392C65.2871 242.536 67.5889 242.355 69.9608 242.096C72.1645 241.878 74.3801 241.832 76.5901 241.958C80.3948 242.148 84.231 242.039 88.0455 242.218C90.4658 242.326 92.9297 242.376 95.3258 243.091C96.778 243.522 98.3851 244.211 99.663 242.51C99.801 242.326 100.195 242.288 100.462 242.308C101.914 242.43 103.366 242.179 104.818 242.202C114.173 242.365 123.491 241.577 132.824 241.072C140.373 240.662 147.941 241.035 155.495 240.167C159.881 239.664 164.354 240.037 168.788 239.96C169.586 239.944 170.295 240.022 170.966 240.478C172.07 241.238 173.183 241.217 174.221 240.338C174.829 239.82 175.393 239.864 175.986 240.312C176.541 240.757 177.23 240.969 177.922 240.906C179.243 240.748 180.584 240.688 181.896 240.589C183.559 240.465 185.214 240.26 186.933 240.571C188.835 240.916 190.854 241.23 192.742 240.219C193.051 240.05 193.399 239.976 193.746 240.004C194.092 240.033 194.425 240.164 194.707 240.382C195.452 240.919 196.261 241.004 197.127 241.022C198.756 241.056 200.402 241.528 201.968 240.608C202.273 240.48 202.609 240.467 202.921 240.571C206.382 241.512 209.877 240.527 213.348 240.799C214.27 240.872 215.166 240.39 216.107 240.628C218.443 241.219 220.757 240.597 223.034 240.268C225.455 239.923 227.747 239.249 230.24 239.892C232.575 240.494 234.596 238.282 234.26 235.744C234.186 235.188 234.244 234.622 234.427 234.096C234.642 233.536 234.753 232.938 234.754 232.333C234.623 227.975 234.591 223.614 234.357 219.264C234.141 215.29 235.068 211.409 234.928 207.43C234.775 203.093 235.322 198.748 234.698 194.39C234.441 192.599 234.371 190.686 234.812 188.85C235.252 186.867 235.319 184.809 235.01 182.797C234.417 178.369 234.971 173.965 235.027 169.55C235.058 167.261 235.385 164.998 235.511 162.727C235.775 157.78 236.031 152.831 235.855 147.864C235.664 142.56 235.947 137.236 235.613 131.939C235.545 130.858 235.719 129.777 236.549 128.966C237.033 128.484 237.319 127.711 236.966 127.206C235.913 125.707 235.889 124.258 236.741 122.697C236.781 122.574 236.791 122.442 236.77 122.314C236.595 118.897 237.496 115.558 237.336 112.12C237.251 110.358 237.026 108.6 237.048 106.827C237.092 103.293 236.883 99.765 237.021 96.2238C237.14 93.2632 236.908 90.2846 236.833 87.3137C236.724 82.9066 236.714 78.5176 236.106 74.1417C235.864 72.4203 235.693 70.6108 236.782 69.0243C237.099 68.5654 237.024 67.9406 237.012 67.3781C236.929 62.6314 237.198 57.8769 236.845 53.1328C236.786 52.0971 236.775 51.0588 236.813 50.022C236.813 49.5864 236.975 49.1457 237.433 49.0057C237.89 48.8657 238.512 49.0317 238.599 49.4335C238.902 50.8463 239.568 52.0259 240.265 53.2339C240.357 53.3947 240.286 53.6591 240.294 53.8743C240.349 55.8575 240.245 57.8432 240.458 59.8368C240.611 60.9599 240.433 62.1061 239.95 63.1162C238.423 66.1493 239.655 69.0061 240.768 71.6504C241.274 72.8481 241.736 73.8876 241.765 75.2071C241.8 76.7592 241.677 78.3108 241.4 79.8346C241.158 81.2293 240.891 82.6992 241.221 84.0732C241.615 85.7297 241.003 86.6837 239.829 87.5366C238.599 88.431 238.515 89.6883 239.587 90.7434C239.977 91.1271 240.267 91.4848 240.003 92.0733C239.217 93.8336 240.216 95.2957 240.887 96.6722C241.305 97.5355 241.809 98.2951 241.683 99.2646C241.441 101.206 241.683 103.138 241.683 105.074C241.697 106.964 242.445 108.657 242.869 110.435V140.769C242.116 141.65 241.55 142.584 241.731 143.88C242.123 146.677 242.84 149.459 242.143 152.321C242.101 152.533 242.115 152.754 242.182 152.958C242.535 154.089 242.375 155.245 242.424 156.399C242.491 158.449 242.719 160.495 242.879 162.54V184.835C242.087 186.745 241.993 188.77 242.189 190.797C242.4 193.369 242.481 195.952 242.431 198.533C242.431 199.775 242.356 201.04 242.888 202.209V212.838C242.53 213.31 242.535 213.838 242.561 214.422C242.644 216.236 242.939 218.09 242.363 219.814C241.83 221.398 241.613 223.084 241.726 224.763C241.879 227.163 241.528 229.595 242.155 231.967C242.245 232.346 242.226 232.746 242.099 233.113C241.337 235.249 241.24 237.455 241.373 239.703C241.371 240.132 241.298 240.558 241.158 240.96C240.674 242.635 238.936 243.553 238.793 245.442C238.793 245.538 238.636 245.676 238.536 245.702C237.326 245.943 236.407 246.998 235.23 247.166C233.8 247.366 232.66 248.084 231.513 248.88H230.787C230.254 248.398 229.605 248.362 228.962 248.385C223.871 248.473 218.78 248.569 213.689 248.673C213.333 248.71 212.98 248.779 212.634 248.88H166.169C164.017 247.532 161.708 248.214 159.455 248.312C157.635 248.39 155.778 249.015 154.13 247.602C153.966 247.47 153.765 247.4 153.56 247.403C153.354 247.406 153.155 247.483 152.995 247.62C151.899 248.413 150.659 248.457 149.406 248.442C148.283 248.402 147.161 248.547 146.08 248.872H144.628C143.691 248.478 142.713 248.691 141.755 248.66C140.947 248.631 140.124 248.701 139.368 248.354C138.4 247.913 137.432 247.879 136.408 247.892C130.784 247.962 125.181 248.621 119.541 248.411C116.569 248.299 113.582 248.455 110.603 248.553C108.909 248.608 107.074 249.023 105.45 247.812C105.136 247.601 104.77 247.498 104.4 247.517C104.03 247.536 103.674 247.676 103.381 247.918C102.582 248.53 101.812 248.46 101.009 247.957C100.525 247.659 100.055 247.685 99.5033 247.825C97.4702 248.343 95.3548 247.874 93.3072 248.343C93.2667 248.344 93.2268 248.333 93.1911 248.312C91.7558 247.651 90.2601 247.916 88.7788 247.996C86.6005 248.113 84.4222 248.092 82.273 248.419C80.0947 248.75 78.0592 247.76 75.9051 247.879C75.2274 247.918 74.5667 247.524 73.9204 248.139C73.6615 248.38 73.2718 248.216 73.0249 247.986C72.0858 247.115 71.0112 247.304 69.9196 247.433C68.3634 247.615 66.7732 247.975 65.2436 247.835C62.0705 247.542 58.8951 247.545 55.7244 247.387C54.5699 247.33 53.4445 247.589 52.2513 247.436C50.4699 247.208 48.6571 247.177 46.8564 247.013C44.436 246.809 42.0157 247.343 39.5494 246.775C37.0831 246.207 34.5296 246.098 32.8281 243.661C32.5571 243.275 32.0149 243.117 31.618 242.827C30.904 242.308 30.6789 241.663 31.2114 240.851C32.1238 239.459 32.3296 238.129 31.0782 236.784C30.5555 236.224 30.8362 235.765 31.5115 235.597C31.6664 235.558 31.8358 235.576 31.9956 235.529C32.4506 235.387 33.0629 235.332 32.983 234.635C32.908 233.997 32.3296 233.961 31.8431 233.917C31.5212 233.888 31.1968 233.917 30.8749 233.862C30.5911 233.849 30.3164 233.751 30.0826 233.578C29.8488 233.405 29.6654 233.165 29.5534 232.885C29.2872 232.226 29.4905 231.705 29.9213 231.249C30.2457 230.907 30.524 230.565 30.5458 230.038C30.6305 228.006 30.2384 225.981 30.5603 223.931C30.6958 223.07 30.2553 222.355 29.217 222.966C28.8854 223.161 28.5369 223.311 28.2489 222.912C27.9923 222.565 28.0577 222.178 28.2005 221.805C28.3975 221.378 28.6913 221.011 29.0549 220.737C29.5607 220.286 29.7156 219.85 28.975 219.474C28.5902 219.288 28.1714 219.06 28.3167 218.541C28.4619 218.023 28.9242 218.072 29.3308 218.134C30.1851 218.261 30.5143 217.782 30.5409 216.949C30.5676 216.117 30.5216 215.21 30.783 214.38C31.4626 212.189 31.8027 209.894 31.7898 207.586C31.7898 206.702 31.6228 206.012 30.6934 205.901C29.4615 205.75 29.309 205.006 29.5728 203.881C30.3788 200.444 29.5196 197.027 29.3816 193.602C29.3729 193.472 29.3364 193.346 29.2751 193.234C29.0754 192.885 28.9651 192.485 28.9553 192.075C28.9456 191.666 29.0366 191.261 29.2194 190.901C29.505 190.261 29.5922 189.48 29.021 188.975C27.7576 187.863 27.8495 186.642 28.5926 185.299C29.0573 184.451 28.9217 183.743 28.1521 183.173C27.9195 183.032 27.7466 182.801 27.6695 182.527C27.5923 182.253 27.617 181.958 27.7382 181.703C28.0335 180.951 27.9681 180.174 27.9681 179.396C27.9681 177.84 27.8858 176.285 28.9121 174.958C29.019 174.8 29.0934 174.621 29.1301 174.43C29.1669 174.24 29.1651 174.043 29.125 173.853C28.6991 172.365 28.9387 170.89 29.1444 169.431C29.3864 167.699 28.9024 166.009 28.9943 164.313C29.0621 163.017 29.0307 161.832 28.5248 160.661C27.7455 158.828 27.9681 156.79 27.5446 154.874C27.3485 154.003 27.4841 153.018 27 152.176V142.324C27.7648 141.687 28.0044 140.849 27.9923 139.823C27.9391 135.545 27.9028 131.268 27.9318 126.993C27.9318 125.585 27.7503 124.123 28.3336 122.775C28.5145 122.412 28.6115 122.008 28.6165 121.597C28.6216 121.185 28.5345 120.779 28.3626 120.411C28.1206 119.911 27.9923 119.374 28.4111 118.972C29.5438 117.912 29.4881 116.54 29.3792 115.148C29.2993 114.047 29.3985 113.002 29.9939 112.037C30.4393 111.317 30.3739 110.568 29.9625 109.836C29.5825 109.162 29.217 108.431 29.3768 107.641C29.6776 106.083 29.6701 104.475 29.355 102.92C28.9968 101.053 30.1222 99.6224 30.6547 98.0514C31.0081 97.0144 32.211 97.3981 33.075 97.494C33.8011 97.577 34.0238 98.2355 34.0214 98.9354C34.0214 100.693 34.2634 102.425 34.1569 104.208C33.9657 107.521 34.0891 110.855 34.1109 114.181C34.1109 115.161 33.9826 116.071 33.3848 116.857C32.879 117.523 32.8136 118.153 33.4744 118.78C34.1351 119.408 34.2392 120.183 33.8786 121.012C33.7231 121.363 33.6455 121.748 33.6518 122.137C33.6581 122.525 33.7482 122.907 33.9149 123.252C34.1763 123.869 34.5635 124.548 34.3626 125.228C33.9463 126.63 34.3626 127.848 34.8467 129.098C35.3574 130.399 35.4711 131.696 34.2997 132.733C34.1808 132.818 34.0873 132.938 34.0302 133.079C33.9731 133.219 33.955 133.374 33.9778 133.526C34.2731 134.988 33.9778 136.453 33.9778 137.912C33.9778 143.564 34.4352 149.238 33.7188 154.854C33.4599 156.894 33.3437 158.828 33.7551 160.816C33.8394 161.33 33.8807 161.85 33.8786 162.372C34.0165 165.812 33.9052 169.252 33.9851 172.694C34.1472 179.777 34.0504 186.865 34.1012 193.952C34.1158 195.889 33.9003 197.968 34.4764 199.725C35.2896 202.212 35.0984 204.68 35.1105 207.14C35.1347 212.05 35.6236 216.939 35.5559 221.849C35.5499 222.152 35.6069 222.452 35.7229 222.728C36.2714 223.84 36.5423 225.085 36.5095 226.342C36.4804 226.899 36.6861 227.417 37.2912 227.451C37.8382 227.482 38.0803 227.026 38.1069 226.518C38.1347 226.13 38.2375 225.753 38.4087 225.41C38.58 225.068 38.816 224.767 39.1016 224.527C40.2634 223.42 40.7111 222.059 40.5538 220.379C40.3389 218.22 40.6647 216.038 41.4978 214.059C41.6107 213.827 41.6667 213.568 41.6603 213.307C41.654 213.046 41.5855 212.791 41.4614 212.566C40.9774 211.692 41.0234 210.751 41.1178 209.802C41.3138 207.783 41.4348 205.755 41.142 203.731C40.7668 201.138 40.2053 198.634 40.5199 195.858C40.9459 192.13 40.5417 188.29 40.4885 184.5C40.4594 182.426 39.9729 180.275 41.3211 178.403C41.4224 178.215 41.4535 177.992 41.4082 177.781C41.1946 176.489 41.3639 175.158 41.8923 173.975C42.5603 172.42 42.6522 171.157 42.0738 169.459C41.4735 167.696 41.6309 165.63 41.4881 163.696C41.3532 161.86 41.4715 160.013 41.839 158.213C42.4247 155.274 42.4126 152.22 41.0185 149.399C40.7127 148.778 40.6425 148.055 40.8225 147.38C41.0911 146.309 40.9556 145.254 40.8903 144.17C40.7813 142.337 40.3045 140.416 41.1323 138.685C41.6587 137.57 41.9292 136.338 41.9213 135.089C41.9721 132.867 41.58 130.591 42.628 128.481C42.766 128.204 42.7103 127.799 42.6982 127.457C42.5627 124.121 41.9116 120.849 42.0568 117.453C42.1754 114.638 41.8777 111.776 41.914 108.929C41.931 107.687 41.7519 106.409 42.7805 105.435C43.0516 105.175 42.9451 104.704 42.9427 104.315V99.0184C42.9427 98.3832 43.221 97.8803 43.5817 97.3852C44.4506 96.1901 44.6127 94.0798 43.8237 92.8796C43.0976 91.7882 43.0976 90.7382 43.5381 89.5846C43.7559 89.0221 44.0802 88.3584 43.7801 87.8399C42.6547 85.8464 43.2622 83.7284 43.2307 81.6493C43.1726 77.981 43.0613 74.3128 42.9887 70.6445C42.9717 69.8901 42.6813 69.242 42.4296 68.5524C41.6687 66.5912 41.6583 64.3882 42.4005 62.4188C42.7466 61.5115 42.9136 60.6041 42.5724 59.7875C41.7495 57.838 41.8777 55.8212 41.9867 53.8017C42.1101 51.4867 42.7878 49.1924 42.2456 46.8618C41.8947 45.353 42.0714 43.8572 42.2069 42.3588C42.3424 40.8604 43.6083 39.4294 44.9951 39.2713C46.6361 39.0872 48.2892 39.012 49.9374 38.9083C50.4796 38.872 50.9346 39.1261 51.4041 39.4268C53.3695 40.64 55.5574 40.4871 57.455 39.6705C58.7142 39.0922 60.0605 38.762 61.4291 38.6957C67.964 38.3924 74.4989 38.7294 81.0168 38.3224C82.3867 38.2369 83.7203 38.268 85.0418 37.7106C85.9495 37.3295 86.8934 37.5292 87.8228 38.071C89.6114 39.1079 91.5912 38.5376 93.496 38.5895C93.6872 38.5895 93.939 38.3561 94.0721 38.1617C94.5852 37.4021 95.2943 37.2362 96.1003 37.2803C101.735 37.5888 107.36 37.2051 112.948 36.627C116.129 36.2978 119.314 36.5959 122.47 36.1085C122.954 36.0333 123.387 36.2304 123.857 36.3911C125.892 37.091 127.729 39.4579 130.149 37.3814C130.185 37.3594 130.225 37.3494 130.266 37.3529C132.964 37.3529 135.631 36.4766 138.335 36.8655C141.38 37.3062 144.437 37.1559 147.486 37.2777C147.93 37.2749 148.373 37.2411 148.813 37.1766C152.816 36.7722 156.778 36.023 160.834 36.0074C165.866 35.9893 170.908 35.9815 175.935 35.5615C177.629 35.4215 179.323 35.2427 181.001 35.3827C183.595 35.5978 186.182 34.7553 188.77 35.4164C189.089 35.4967 189.496 35.3438 189.827 35.196C190.98 34.6775 192.192 34.6412 193.397 34.7423C195.042 34.8452 196.69 34.8547 198.335 34.7708C202.846 34.6334 207.377 34.4209 211.872 34.732C216.608 35.0612 221.333 33.6639 226.062 34.8901C227.342 35.2219 227.885 34.4805 227.865 33.0443C227.893 32.3439 227.682 31.6566 227.272 31.1101C226.862 30.5637 226.281 30.1953 225.636 30.0734C224.796 29.8634 223.942 29.9516 223.109 29.9256C221.8 29.8868 220.447 30.1071 219.237 29.3216C218.753 29.0002 218.411 29.3009 218.065 29.6301C217.376 30.286 216.516 30.4338 215.846 29.8401C214.904 29.0027 213.876 28.982 212.782 29.0053C207.749 29.1312 202.714 28.8121 197.73 28.0513C194.784 27.5847 191.822 27.0662 188.835 27.3073C186.986 27.4551 185.137 27.424 183.295 27.4577C180.083 27.5147 176.879 27.6262 173.684 27.8984C170.225 28.1939 166.784 27.9217 163.332 27.8984C161.638 27.8854 159.835 27.074 158.322 27.6521C156.454 28.3676 154.541 27.6884 152.717 28.5102C151.197 29.1972 149.473 28.155 147.837 28.658C146.901 28.9483 145.915 28.7591 144.95 28.7824C142.75 28.8316 140.528 28.6061 138.415 29.6716C137.478 30.146 136.399 30.3689 135.491 29.3786C135.16 29.0183 134.683 29.0105 134.235 29.0157C132.417 29.0364 130.617 28.6761 128.811 28.6502C123.002 28.575 117.193 28.6113 111.402 28.6502C110.538 28.6502 109.623 28.7902 108.884 29.4279C108.425 29.8271 107.928 29.6871 107.394 29.5757C105.854 29.2957 104.298 28.8524 102.756 28.8991C100.5 28.9639 98.2471 29.1298 95.9793 29.0209C95.4552 28.9783 94.9284 28.9983 94.4085 29.0805C90.9285 29.7163 87.4095 30.0776 83.8801 30.1616C81.8736 30.2238 79.8648 30.0942 77.8559 30.1123C76.8176 30.1123 75.7333 30.0786 74.845 30.8278C74.1189 31.4474 73.3226 31.5018 72.444 31.2763C71.4759 31.017 70.4933 30.6386 69.4695 30.9082C68.1964 31.2452 66.9257 31.8337 65.7591 30.6152C65.672 30.5245 65.4445 30.5634 65.2871 30.5789C62.2545 30.89 59.2726 30.566 56.2763 29.993C55.2137 29.7908 54.202 29.7157 53.2073 29.1583C52.3336 28.6709 51.2517 28.6398 50.4941 29.4849C50.1994 29.8098 49.8463 30.0674 49.4561 30.2421C49.0659 30.4167 48.6467 30.5049 48.2238 30.5012C46.2513 30.5789 44.3513 31.2789 42.3788 31.3074C41.0469 31.3272 39.7209 31.501 38.4239 31.8259C36.9717 32.1966 36.0036 33.1221 35.6672 34.7371C35.5268 35.4164 35.3767 36.1111 34.8612 36.5829C34.0988 37.2803 34.031 38.1721 34.0335 39.1624C34.0456 43.261 35.096 47.2533 34.9484 51.3933C34.8564 53.965 35.079 56.5781 34.9217 59.1524C34.8346 60.586 34.7741 61.9677 35.1638 63.378C35.4058 64.2335 35.5607 65.3534 34.8661 65.9575C33.8979 66.7896 33.927 67.7332 34.0068 68.835C34.077 69.8227 34.0359 70.8208 34.048 71.8137C34.048 72.3322 33.9415 72.7729 33.4647 72.9855C33.2424 73.0938 32.9955 73.1306 32.7541 73.0915C32.5126 73.0523 32.2869 72.939 32.1045 72.7651C31.0226 71.8163 30.4756 70.4319 29.6841 69.2602C29.4155 68.8609 29.6019 68.4047 29.9528 68.1143C30.4974 67.6633 30.5772 67.0774 30.5627 66.3826C30.5385 65.3923 30.5627 64.3968 30.599 63.4039C30.6353 62.411 30.599 61.5218 29.7156 60.8893C29.1856 60.516 29.2146 59.8757 29.2896 59.2405C29.4058 58.2399 29.401 57.2444 28.7184 56.4226C28.0359 55.6008 28.0528 54.8049 28.5079 53.9106C28.9242 53.0914 29.0065 52.2073 29.0089 51.2819C29.0282 47.4425 28.0286 43.7535 27.4695 39.9945C27.3187 39.2252 27.4035 38.4242 27.7116 37.7106C28.1497 36.7929 28.1956 35.826 28.2586 34.8253C28.3747 32.8369 28.6216 30.8356 29.5873 29.1013C30.3376 27.7402 30.6305 25.9256 32.649 25.6663C34.9217 25.3708 37.146 24.689 39.4719 24.8705C40.1598 24.9112 40.8472 24.7817 41.4808 24.492C42.2343 24.1715 43.043 24.0274 43.8527 24.0694C45.5099 24.0932 47.1641 23.9132 48.7829 23.5328C50.407 23.188 51.9584 24.8108 53.58 23.6209C53.7204 23.5172 54.0399 23.7168 54.2771 23.7298C55.9205 23.8205 57.5615 23.9216 59.2049 23.9735C60.6111 24.0201 62.1092 23.3254 63.3485 24.6268C63.5784 24.8653 63.8688 24.6657 64.1205 24.4946C64.906 23.9592 65.8068 23.6493 66.7364 23.5948C67.666 23.5403 68.5931 23.7431 69.4283 24.1835C70.9434 24.9612 72.444 24.943 73.9713 25.153C74.7942 25.2645 75.4235 24.9482 75.8809 24.1161C76.3117 23.3383 76.895 22.6643 77.8922 22.6851C79.8672 22.7239 81.8422 22.7369 83.8196 22.7369C84.5021 22.7369 85.0781 22.8795 85.4751 23.5613C85.9591 24.4038 86.5933 24.3027 87.1983 23.7168C87.6824 23.2476 88.1326 22.6799 88.803 22.6332C90.2359 22.5554 91.6735 22.2962 93.1233 22.4595C95.897 22.768 98.6683 22.3895 101.442 22.3973C102.26 22.3973 103.068 21.8944 103.928 22.2314C104.362 22.4157 104.834 22.4687 105.295 22.3846C105.755 22.3004 106.184 22.0824 106.537 21.7544C107.185 21.2126 108.006 20.9041 108.659 21.4951C109.976 22.7058 111.494 22.3792 112.922 22.2444C116 21.954 119.127 22.2158 122.165 21.3915C122.426 21.3189 122.726 21.4277 123.007 21.3915C125.125 21.2074 127.274 21.477 129.38 21H149.953C150.456 21.3837 150.87 22.1225 151.618 21.7025C152.489 21.2287 153.478 21.0644 154.442 21.2333C156.166 21.4926 157.853 22.151 159.564 21.21C159.656 21.1607 159.806 21.21 159.922 21.21C164.351 21.1979 168.78 21.1815 173.209 21.1607C173.529 21.1352 173.845 21.0814 174.156 21Z" fill="#F80000"/>
<path d="M177.875 118.376L176.766 118.67L176.121 117.879L174.546 117.289C173.686 117.222 172.947 116.991 172.327 116.599C169.185 114.352 166.32 111.746 163.734 108.78L163.27 107.694L162.074 105.815C161.397 104.692 160.936 103.504 160.689 102.251C150.338 88.5368 141.034 74.0608 132.776 58.8236C131.607 56.9143 130.746 55.1678 130.196 53.5839L129.731 52.5986L130.652 52C134.66 53.5839 138.236 55.8584 141.378 58.8236L141.929 59.8181L142.944 60.7022C143.5 61.2301 144.025 61.8901 144.518 62.682L145.533 63.5752C147.442 66.743 149.507 69.7757 151.726 72.6734C153.756 76.4305 156.251 79.7609 159.21 82.6647C162.042 85.1695 164.505 88.0702 166.598 91.3669C170.418 96.579 173.959 102.055 177.222 107.795C178.088 108.783 178.489 109.738 178.426 110.659L178.985 111.746C179.662 112.341 180 113.035 180 113.827L178.701 117.483L177.875 118.376ZM93.2343 115.015C92.4945 114.88 91.7863 114.68 91.1096 114.416L90 112.74C90.8602 112.341 91.6917 111.945 92.4945 111.552C93.7848 110.165 94.8313 108.547 95.6341 106.699C96.2535 105.447 96.8843 104.213 97.5265 102.997C98.1745 101.776 98.7766 100.572 99.3329 99.3876L99.8834 98.4944L100.898 96.7171C101.455 95.6612 101.965 94.6206 102.43 93.5954C102.888 92.5763 103.304 91.5388 103.677 90.4828L104.872 87.6098C105.555 85.7005 106.188 83.7728 106.773 81.8267C107.358 79.8807 107.651 77.8517 107.651 75.7398L107.092 74.7545L106.352 73.6679C105.859 73.1399 105.644 72.3818 105.707 71.3934L104.872 70.6014L106.997 70.8961C107.983 71.3565 109.001 71.7832 110.051 72.1761L111.255 73.0693L111.986 74.3585C112.852 74.7514 113.686 75.2119 114.489 75.7398C115.349 76.4029 116.181 77.161 116.984 78.0144C117.104 79.7333 117.351 81.3817 117.723 82.9594L116.984 85.0406L116.889 86.5231L115.874 88.2083L115.315 89.1936C115.131 89.9856 114.916 90.7438 114.67 91.4682C112.944 93.445 111.496 95.6213 110.326 97.9971C107.74 103.737 104.107 108.486 99.4275 112.243C98.8713 112.9 98.1917 113.197 97.3889 113.136L96.7438 114.02L95.6341 114.416C94.7109 114.815 93.9109 115.015 93.2343 115.015Z" fill="white"/>
<path d="M117.354 216.934C116.247 216.277 115.384 215.387 114.764 214.263L113.569 213.674L112.915 212.385C111.682 211.593 110.882 210.439 110.515 208.922C109.902 207.271 109.317 205.622 108.76 203.977L108.201 202.789L109.225 202.992C110.825 204.042 112.301 204.668 113.655 204.87L114.025 203.876C114.151 202.691 114.214 201.555 114.214 200.469C114.214 199.376 114.243 198.335 114.3 197.347C114.116 195.567 113.996 194.066 113.939 192.844C113.876 191.628 113.781 190.394 113.655 189.142C114.028 183.93 113.721 178.819 112.734 173.81C112.058 174.338 111.286 174.602 110.421 174.602C108.758 175.455 107.158 176.146 105.621 176.674C104.755 176.41 103.86 176.179 102.937 175.983C102.507 176.971 102.292 177.96 102.292 178.948C102.292 179.937 102.2 180.925 102.017 181.913C100.967 186.665 99.9493 191.496 98.963 196.408C97.9767 201.319 96.5287 206.083 94.6191 210.699L93.974 211.694L93.1482 212.191L92.6837 213.37L91.4795 213.573L90.6451 212.974L90 211.593L90.8344 210.506C91.3275 209.186 91.8207 207.9 92.3139 206.648C93.6672 200.779 94.8514 194.861 95.8664 188.893C96.8871 182.926 97.5495 176.876 97.8534 170.743L97.7674 168.165V166.977C97.6412 165.528 97.6412 164.177 97.7674 162.925C97.7043 160.218 97.796 157.513 98.0426 154.812C97.8591 153.756 97.7043 152.67 97.5781 151.552V146.506C97.4577 145.518 97.3516 144.526 97.2599 143.532C97.1624 142.543 96.9903 141.521 96.7438 140.465C96.5603 138.36 96.3452 136.499 96.0986 134.885C95.852 133.264 95.3589 131.729 94.6191 130.281C93.1454 129.096 91.8838 127.711 90.8344 126.127L91.8494 126.523L92.4945 127.315C93.3604 127.512 94.2865 127.576 95.2729 127.509C96.2535 127.441 97.1767 127.607 98.0426 128.006L100.812 126.127L102.197 125.234C103.86 124.246 105.632 123.571 107.513 123.208C109.394 122.846 111.289 122.631 113.199 122.564L114.954 123.356C116.37 124.344 117.632 125.102 118.738 125.63C119.478 127.079 120.032 128.565 120.399 130.087L120.029 131.266L119.108 131.864L118.738 133.347C118.618 134.268 118.463 135.124 118.274 135.916L118.463 137.703C118.337 138.82 118.059 139.873 117.629 140.861C117.508 142.378 117.431 143.697 117.397 144.821C117.368 145.944 117.262 147.065 117.078 148.182L117.164 150.659V152.142C116.923 153.063 116.863 154.02 116.984 155.015C117.167 155.801 117.227 156.623 117.164 157.483C116.923 158.342 116.863 159.266 116.984 160.255C117.104 161.636 117.196 163.02 117.259 164.408C117.385 165.464 117.417 166.32 117.354 166.977L116.984 168.662C117.351 170.442 117.597 172.272 117.723 174.15C117.844 176.029 117.999 177.892 118.188 179.74C117.999 181.06 118.027 182.414 118.274 183.801C118.337 185.053 118.432 186.174 118.558 187.162V194.28L118.738 195.763C119.048 197.611 119.263 199.425 119.384 201.205L121.052 201.997C122.899 201.733 124.685 201.288 126.411 200.662C128.132 200.036 129.795 199.262 131.4 198.341C134.17 196.359 136.573 193.983 138.608 191.214L138.978 190.229C137.436 188.909 135.956 187.491 134.54 185.974C133.984 185.25 133.459 184.654 132.966 184.188C131.429 182.211 130.044 180.136 128.811 177.963L130.196 178.451C131.062 178.979 131.879 179.424 132.647 179.786C133.416 180.154 134.17 180.6 134.91 181.121L135.649 182.015C137.926 183.463 140.237 184.882 142.582 186.269C143.626 184.685 144.581 183.037 145.447 181.324C145.997 180.864 146.181 180.302 145.997 179.639C146.857 178.122 147.597 176.606 148.217 175.09L148.767 174.003L149.601 172.714C150.158 171.529 150.496 170.243 150.616 168.855H148.956C147.97 169.119 147.03 169.436 146.135 169.804C145.24 170.166 144.331 170.51 143.408 170.835C142.422 171.234 141.438 171.63 140.458 172.023C139.655 172.484 138.852 172.831 138.049 173.064C137.252 173.297 136.452 173.512 135.649 173.708L132.69 175.191C131.458 175.786 130.319 176.216 129.276 176.48L128.166 176.176L126.962 175.384C125.855 174.863 124.84 174.304 123.917 173.708L122.712 172.622L122.162 171.729L123.822 171.231C125.175 171.035 126.469 170.657 127.701 170.099C128.934 169.534 130.227 169.119 131.581 168.855C132.997 168.266 134.353 167.707 135.649 167.179C136.819 166.848 137.883 166.535 138.841 166.24C139.793 165.939 140.793 165.593 141.843 165.2C142.886 164.936 143.933 164.672 144.982 164.408C145.842 164.144 146.674 163.913 147.477 163.717C148.28 163.521 149.08 163.257 149.877 162.925L150.986 162.723C152.156 161.937 153.203 161.608 154.126 161.737C155.732 162.726 157.395 163.65 159.115 164.509L160.044 166.388L160.319 167.677L159.579 168.662C159.023 169.583 158.622 170.522 158.375 171.48C158.134 172.438 157.796 173.346 157.36 174.206L156.715 175.486L155.7 176.572C155.517 177.432 155.27 178.224 154.96 178.948L154.126 180.035C154.006 180.698 153.667 181.192 153.111 181.517C152.801 182.837 152.125 183.859 151.081 184.584L150.522 186.269L149.601 187.752C148.988 188.347 148.618 188.973 148.492 189.63L148.217 190.717C149.943 192.368 151.76 193.888 153.67 195.275C154.347 195.735 154.96 196.196 155.511 196.656C157.18 197.841 158.845 199.06 160.508 200.312C161.615 201.043 162.693 201.752 163.743 202.439C164.786 203.133 165.925 203.646 167.158 203.977C168.264 204.505 169.374 204.999 170.486 205.46C171.593 205.92 172.7 206.448 173.807 207.044L174.546 207.836C175.166 208.891 175.507 209.88 175.57 210.801L175.011 211.795L172.886 212.09H171.682C169.962 212.09 168.299 211.89 166.693 211.491C165.093 211.098 163.462 210.703 161.799 210.303C156.81 207.799 152.466 204.404 148.767 200.119L148.217 199.225L147.202 198.636L146.642 197.743L145.447 196.951L144.793 196.067L143.778 195.468C141.255 197.513 138.7 199.557 136.114 201.601C135.065 202.393 134.201 202.921 133.525 203.185C131.736 204.106 130.179 204.766 128.854 205.165C127.529 205.558 126.159 205.886 124.742 206.15C123.51 206.021 122.308 205.659 121.138 205.064L119.384 203.977C118.953 205.886 118.862 207.832 119.108 209.815C119.045 211.068 118.908 212.305 118.695 213.527C118.477 214.742 118.03 215.878 117.354 216.934ZM103.952 171.922L104.236 171.729C105.526 171.072 106.819 170.412 108.115 169.749C109.532 168.564 110.917 168.036 112.27 168.165C112.643 167.047 112.797 166.059 112.734 165.2C112.608 164.015 112.577 162.959 112.64 162.032C112.577 160.184 112.545 158.668 112.545 157.483C111.438 157.814 110.423 158.045 109.5 158.173H108.021C107.407 157.977 106.791 157.814 106.171 157.685L104.511 157.483L103.582 157.98C103.829 159.097 103.86 160.12 103.677 161.047C103.923 162.102 104.015 163.026 103.952 163.818C103.769 164.739 103.585 165.629 103.402 166.489L103.212 167.474L102.662 171.139L103.952 171.922ZM166.418 157.584L165.128 157.777C163.769 157.716 162.444 157.553 161.154 157.289C159.548 157.222 158.16 156.909 156.99 156.35C155.821 155.785 154.714 155.175 153.67 154.518C152.747 153.726 151.852 152.934 150.986 152.142L150.436 151.249L149.782 150.061C149.048 148.544 148.541 147.013 148.26 145.466C147.984 143.912 147.815 142.246 147.752 140.465L147.847 138.191C147.6 136.742 147.508 135.226 147.571 133.642C147.755 132.193 147.97 130.808 148.217 129.489C146.617 129.624 145.215 129.854 144.01 130.179C142.812 130.511 141.596 130.775 140.363 130.971L138.978 131.57L137.955 132.058C137.771 132.985 137.588 133.844 137.404 134.636L137.224 136.22L137.679 137.205C137.622 138.261 137.562 139.118 137.499 139.775L136.854 141.754L136.389 142.749L136.854 144.232C136.481 145.024 136.203 145.846 136.019 146.699V147.786C135.343 148.449 135.065 149.207 135.185 150.061C135.065 151.448 134.789 152.636 134.359 153.624L133.525 155.208L132.596 156.691L131.495 156.986C131.122 157.777 130.474 158.011 129.551 157.685C128.691 157.022 128.106 156.163 127.796 155.107L128.811 154.223C129.367 152.443 129.797 150.693 130.101 148.974V140.465L130.196 134.24C130.076 133.184 129.829 132.162 129.456 131.174L128.811 129.783L128.63 128.595L127.891 127.905L126.867 127.509L126.222 126.625L125.482 125.133L123.633 124.544C124.682 124.083 125.732 123.917 126.781 124.046C128.381 124.181 129.706 124.577 130.755 125.234L133.619 127.021C136.573 126.229 139.328 125.388 141.886 124.498C144.443 123.607 146.955 122.665 149.421 121.67L150.986 122.564C152.156 123.423 153.142 124.049 153.945 124.442L154.866 125.041L155.055 126.026C155.852 126.947 156.222 127.773 156.165 128.503L156.07 129.489C155.577 130.808 155.193 132.012 154.917 133.098C154.636 134.185 154.344 135.226 154.04 136.22L153.206 137.5C152.833 138.427 152.618 139.385 152.56 140.373C152.744 141.49 152.85 142.66 152.879 143.882C152.913 145.103 153.054 146.242 153.3 147.298C154.223 148.022 155.178 148.649 156.165 149.177C157.334 149.766 158.564 150.177 159.855 150.411C161.151 150.644 162.475 150.761 163.829 150.761C164.568 148.913 165.047 147.08 165.265 145.263C165.477 143.452 165.615 141.622 165.678 139.775L165.128 137.896L166.048 139.084C166.667 139.415 167.023 139.811 167.115 140.272C167.206 140.732 167.622 141.193 168.362 141.653C168.666 142.906 169.004 144.127 169.377 145.318C169.807 146.436 170.177 147.439 170.486 148.329C170.79 149.22 171.16 150.094 171.596 150.954C172.089 151.617 172.643 152.209 173.256 152.731L174.177 154.812L174.736 156.59C173.812 157.185 172.858 157.517 171.871 157.584C171.132 157.713 170.36 157.747 169.557 157.685C168.267 157.55 167.221 157.517 166.418 157.584ZM104.417 152.538L105.337 153.431C106.14 153.032 106.925 152.618 107.694 152.188C108.468 151.764 109.317 151.583 110.24 151.645C110.853 152.044 111.53 152.243 112.27 152.243L112.459 141.358C112.706 139.382 112.875 137.371 112.967 135.327C113.058 133.283 113.104 131.204 113.104 129.093C112.301 128.829 111.53 128.632 110.79 128.503L108.485 129.489C106.943 130.084 105.495 130.413 104.141 130.474L102.842 130.87L102.292 131.966L103.307 132.362L103.952 133.246C104.262 134.369 104.571 135.229 104.881 135.824L104.606 137.205C104.606 138.39 104.543 139.345 104.417 140.069L104.236 141.257C104.236 142.313 104.328 143.305 104.511 144.232L104.322 145.512L104.511 146.902C104.138 147.627 104.015 148.547 104.141 149.665C104.262 150.592 104.353 151.549 104.417 152.538Z" fill="white"/>
</svg>
